<mxfile host="Electron" agent="Mozilla/5.0 (Windows NT 10.0; Win64; x64) AppleWebKit/537.36 (KHTML, like Gecko) draw.io/25.0.2 Chrome/128.0.6613.186 Electron/32.2.5 Safari/537.36" version="25.0.2">
  <diagram id="Nfm0h8HNBkCvx8BDeSix" name="Page-1">
    <mxGraphModel dx="3462" dy="1308" grid="1" gridSize="10" guides="1" tooltips="1" connect="1" arrows="1" fold="1" page="1" pageScale="1" pageWidth="1390" pageHeight="980" math="0" shadow="0">
      <root>
        <mxCell id="0" />
        <mxCell id="1" parent="0" />
        <mxCell id="19" value="" style="edgeStyle=none;html=1;fontSize=24;" parent="1" source="17" target="18" edge="1">
          <mxGeometry relative="1" as="geometry" />
        </mxCell>
        <mxCell id="17" value="Start" style="ellipse;whiteSpace=wrap;html=1;fontSize=24;" parent="1" vertex="1">
          <mxGeometry x="350" width="110" height="50" as="geometry" />
        </mxCell>
        <mxCell id="18" value="choice" style="shape=parallelogram;perimeter=parallelogramPerimeter;whiteSpace=wrap;html=1;fixedSize=1;fontSize=24;" parent="1" vertex="1">
          <mxGeometry x="330" y="100" width="150" height="50" as="geometry" />
        </mxCell>
        <mxCell id="20" value="Function LargestOfNumber" style="whiteSpace=wrap;html=1;fontSize=24;" parent="1" vertex="1">
          <mxGeometry x="-170" y="87.5" width="215" height="75" as="geometry" />
        </mxCell>
        <mxCell id="22" value="Function&amp;nbsp;&lt;br&gt;PositiveNagative" style="whiteSpace=wrap;html=1;fontSize=24;" parent="1" vertex="1">
          <mxGeometry x="-215" y="250" width="225" height="70" as="geometry" />
        </mxCell>
        <mxCell id="25" value="" style="endArrow=classic;html=1;fontSize=24;exitX=0;exitY=0.5;exitDx=0;exitDy=0;entryX=1;entryY=0.5;entryDx=0;entryDy=0;strokeColor=#FF0000;fillColor=#FF0000;" parent="1" source="18" target="20" edge="1">
          <mxGeometry relative="1" as="geometry">
            <mxPoint x="350" y="170" as="sourcePoint" />
            <mxPoint x="450" y="170" as="targetPoint" />
          </mxGeometry>
        </mxCell>
        <mxCell id="26" value="1" style="edgeLabel;resizable=0;html=1;align=center;verticalAlign=middle;fontSize=24;" parent="25" connectable="0" vertex="1">
          <mxGeometry relative="1" as="geometry" />
        </mxCell>
        <mxCell id="27" value="" style="endArrow=classic;html=1;fontSize=24;exitX=0;exitY=1;exitDx=0;exitDy=0;entryX=0.5;entryY=0;entryDx=0;entryDy=0;strokeColor=#0000FF;fillColor=#0000FF;" parent="1" source="18" target="22" edge="1">
          <mxGeometry relative="1" as="geometry">
            <mxPoint x="480" y="124.91" as="sourcePoint" />
            <mxPoint x="580" y="124" as="targetPoint" />
            <Array as="points">
              <mxPoint x="110" y="170" />
            </Array>
          </mxGeometry>
        </mxCell>
        <mxCell id="28" value="2" style="edgeLabel;resizable=0;html=1;align=center;verticalAlign=middle;fontSize=24;" parent="27" connectable="0" vertex="1">
          <mxGeometry relative="1" as="geometry" />
        </mxCell>
        <mxCell id="63" value="" style="edgeStyle=none;html=1;fontSize=24;strokeColor=#FFFF00;fillColor=#FFFF00;" parent="1" source="30" target="62" edge="1">
          <mxGeometry relative="1" as="geometry" />
        </mxCell>
        <mxCell id="30" value="Function&amp;nbsp;&lt;br&gt;EvenOdd" style="whiteSpace=wrap;html=1;fontSize=24;" parent="1" vertex="1">
          <mxGeometry x="60" y="200" width="215" height="75" as="geometry" />
        </mxCell>
        <mxCell id="33" value="" style="endArrow=classic;html=1;fontSize=24;exitX=0;exitY=0.5;exitDx=0;exitDy=0;entryX=0.5;entryY=0;entryDx=0;entryDy=0;strokeColor=#FFFF00;fillColor=#FFFF00;" parent="1" source="18" target="30" edge="1">
          <mxGeometry relative="1" as="geometry">
            <mxPoint x="160" y="162.5" as="sourcePoint" />
            <mxPoint x="260" y="162.5" as="targetPoint" />
            <Array as="points">
              <mxPoint x="210" y="150" />
            </Array>
          </mxGeometry>
        </mxCell>
        <mxCell id="34" value="3" style="edgeLabel;resizable=0;html=1;align=center;verticalAlign=middle;fontSize=24;" parent="33" connectable="0" vertex="1">
          <mxGeometry relative="1" as="geometry" />
        </mxCell>
        <mxCell id="80" value="" style="edgeStyle=none;html=1;fontSize=24;strokeColor=#00FF00;fillColor=#00FF00;" parent="1" source="35" target="79" edge="1">
          <mxGeometry relative="1" as="geometry" />
        </mxCell>
        <mxCell id="35" value="Function&amp;nbsp;&lt;br&gt;EvelutionScore" style="whiteSpace=wrap;html=1;fontSize=24;" parent="1" vertex="1">
          <mxGeometry x="600" y="250" width="215" height="75" as="geometry" />
        </mxCell>
        <mxCell id="38" value="" style="endArrow=classic;html=1;fontSize=24;exitX=1;exitY=0.5;exitDx=0;exitDy=0;entryX=0.5;entryY=0;entryDx=0;entryDy=0;strokeColor=#00FF00;fillColor=#00FF00;" parent="1" source="18" target="35" edge="1">
          <mxGeometry relative="1" as="geometry">
            <mxPoint x="460" y="190" as="sourcePoint" />
            <mxPoint x="560" y="190" as="targetPoint" />
            <Array as="points">
              <mxPoint x="570" y="140" />
            </Array>
          </mxGeometry>
        </mxCell>
        <mxCell id="39" value="4" style="edgeLabel;resizable=0;html=1;align=center;verticalAlign=middle;fontSize=24;" parent="38" connectable="0" vertex="1">
          <mxGeometry relative="1" as="geometry" />
        </mxCell>
        <mxCell id="41" value="" style="endArrow=classic;html=1;fontSize=24;exitX=1;exitY=0.5;exitDx=0;exitDy=0;entryX=0;entryY=0.5;entryDx=0;entryDy=0;strokeColor=#800080;fillColor=#800080;" parent="1" source="18" target="152" edge="1">
          <mxGeometry relative="1" as="geometry">
            <mxPoint x="560" y="210" as="sourcePoint" />
            <mxPoint x="907.5" y="200" as="targetPoint" />
            <Array as="points">
              <mxPoint x="690" y="160" />
            </Array>
          </mxGeometry>
        </mxCell>
        <mxCell id="42" value="5" style="edgeLabel;resizable=0;html=1;align=center;verticalAlign=middle;fontSize=24;" parent="41" connectable="0" vertex="1">
          <mxGeometry relative="1" as="geometry" />
        </mxCell>
        <mxCell id="47" value="" style="endArrow=classic;html=1;fontSize=24;exitX=0.5;exitY=1;exitDx=0;exitDy=0;entryX=0.5;entryY=0;entryDx=0;entryDy=0;strokeColor=#FF0000;fillColor=#FF0000;" parent="1" source="44" target="93" edge="1">
          <mxGeometry relative="1" as="geometry">
            <mxPoint x="-495" y="300" as="targetPoint" />
          </mxGeometry>
        </mxCell>
        <mxCell id="44" value="input num1 and num2" style="shape=parallelogram;perimeter=parallelogramPerimeter;whiteSpace=wrap;html=1;fixedSize=1;fontSize=24;" parent="1" vertex="1">
          <mxGeometry x="-600" y="190" width="210" height="70" as="geometry" />
        </mxCell>
        <mxCell id="45" value="" style="endArrow=classic;html=1;fontSize=24;exitX=0;exitY=0.5;exitDx=0;exitDy=0;entryX=0.5;entryY=0;entryDx=0;entryDy=0;strokeColor=#FF0000;fillColor=#FF0000;" parent="1" source="20" target="44" edge="1">
          <mxGeometry width="50" height="50" relative="1" as="geometry">
            <mxPoint x="-250" y="120" as="sourcePoint" />
            <mxPoint x="-200" y="70" as="targetPoint" />
            <Array as="points">
              <mxPoint x="-260" y="130" />
            </Array>
          </mxGeometry>
        </mxCell>
        <mxCell id="50" value="" style="endArrow=classic;html=1;fontSize=24;exitX=0;exitY=0.5;exitDx=0;exitDy=0;entryX=0.5;entryY=0;entryDx=0;entryDy=0;strokeColor=#FF0000;fillColor=#FF0000;" parent="1" source="93" target="97" edge="1">
          <mxGeometry relative="1" as="geometry">
            <mxPoint x="-585" y="330" as="sourcePoint" />
            <mxPoint x="-697.5" y="420" as="targetPoint" />
            <Array as="points">
              <mxPoint x="-620" y="380" />
            </Array>
          </mxGeometry>
        </mxCell>
        <mxCell id="51" value="false" style="edgeLabel;resizable=0;html=1;align=center;verticalAlign=middle;fontSize=24;" parent="50" connectable="0" vertex="1">
          <mxGeometry relative="1" as="geometry" />
        </mxCell>
        <mxCell id="53" value="" style="endArrow=classic;html=1;fontSize=24;exitX=1;exitY=0.5;exitDx=0;exitDy=0;entryX=0.5;entryY=0;entryDx=0;entryDy=0;strokeColor=#FF0000;fillColor=#FF0000;" parent="1" source="93" target="98" edge="1">
          <mxGeometry relative="1" as="geometry">
            <mxPoint x="-405" y="330" as="sourcePoint" />
            <mxPoint x="-270" y="425" as="targetPoint" />
            <Array as="points">
              <mxPoint x="-330" y="380" />
            </Array>
          </mxGeometry>
        </mxCell>
        <mxCell id="54" value="true" style="edgeLabel;resizable=0;html=1;align=center;verticalAlign=middle;fontSize=24;" parent="53" connectable="0" vertex="1">
          <mxGeometry relative="1" as="geometry" />
        </mxCell>
        <mxCell id="59" value="" style="edgeStyle=segmentEdgeStyle;endArrow=classic;html=1;curved=0;rounded=0;endSize=8;startSize=8;fontSize=24;exitX=0.5;exitY=1;exitDx=0;exitDy=0;entryX=0;entryY=0;entryDx=0;entryDy=0;" parent="1" source="97" target="18" edge="1">
          <mxGeometry width="50" height="50" relative="1" as="geometry">
            <mxPoint x="-697.5" y="480" as="sourcePoint" />
            <mxPoint x="180" y="290" as="targetPoint" />
            <Array as="points">
              <mxPoint x="-690" y="480" />
              <mxPoint x="-700" y="480" />
              <mxPoint x="-700" y="520" />
              <mxPoint x="-810" y="520" />
              <mxPoint x="-810" y="60" />
              <mxPoint x="300" y="60" />
              <mxPoint x="300" y="106" />
            </Array>
          </mxGeometry>
        </mxCell>
        <mxCell id="61" value="ជ្រើសរើសជម្រើសម្តងទៀត" style="edgeLabel;resizable=0;html=1;align=center;verticalAlign=middle;fontSize=24;rotation=90;" parent="1" connectable="0" vertex="1">
          <mxGeometry x="-910.9955713122031" y="550.0004538088933" as="geometry">
            <mxPoint x="-341.94060387975395" y="-108.89179030214436" as="offset" />
          </mxGeometry>
        </mxCell>
        <mxCell id="65" value="" style="edgeStyle=none;html=1;entryX=0.5;entryY=0;entryDx=0;entryDy=0;strokeColor=#FFFF00;fillColor=#FFFF00;" parent="1" source="62" target="100" edge="1">
          <mxGeometry relative="1" as="geometry">
            <mxPoint x="155" y="485" as="targetPoint" />
          </mxGeometry>
        </mxCell>
        <mxCell id="62" value="Input num1 and num2" style="shape=parallelogram;perimeter=parallelogramPerimeter;whiteSpace=wrap;html=1;fixedSize=1;fontSize=24;" parent="1" vertex="1">
          <mxGeometry x="40" y="330" width="230" height="90" as="geometry" />
        </mxCell>
        <mxCell id="68" value="" style="endArrow=classic;html=1;entryX=0.5;entryY=0;entryDx=0;entryDy=0;exitX=0;exitY=0.5;exitDx=0;exitDy=0;strokeColor=#FFFF00;fillColor=#FFFF00;" parent="1" source="100" target="101" edge="1">
          <mxGeometry relative="1" as="geometry">
            <mxPoint x="50" y="530" as="sourcePoint" />
            <mxPoint x="-80" y="560" as="targetPoint" />
          </mxGeometry>
        </mxCell>
        <mxCell id="69" value="&lt;font style=&quot;font-size: 24px;&quot;&gt;false&lt;/font&gt;" style="edgeLabel;resizable=0;html=1;align=center;verticalAlign=middle;" parent="68" connectable="0" vertex="1">
          <mxGeometry relative="1" as="geometry" />
        </mxCell>
        <mxCell id="72" value="" style="endArrow=classic;html=1;exitX=1;exitY=0.5;exitDx=0;exitDy=0;entryX=0.5;entryY=0;entryDx=0;entryDy=0;strokeColor=#FFFF00;fillColor=#FFFF00;" parent="1" source="100" target="102" edge="1">
          <mxGeometry relative="1" as="geometry">
            <mxPoint x="300" y="522.5" as="sourcePoint" />
            <mxPoint x="352.5" y="560" as="targetPoint" />
          </mxGeometry>
        </mxCell>
        <mxCell id="73" value="&lt;font style=&quot;font-size: 24px;&quot;&gt;true&lt;/font&gt;" style="edgeLabel;resizable=0;html=1;align=center;verticalAlign=middle;" parent="72" connectable="0" vertex="1">
          <mxGeometry relative="1" as="geometry" />
        </mxCell>
        <mxCell id="78" value="" style="edgeStyle=segmentEdgeStyle;endArrow=classic;html=1;curved=0;rounded=0;endSize=8;startSize=8;exitX=0.5;exitY=1;exitDx=0;exitDy=0;entryX=0.75;entryY=0;entryDx=0;entryDy=0;" parent="1" source="102" target="18" edge="1">
          <mxGeometry width="50" height="50" relative="1" as="geometry">
            <mxPoint x="155" y="720" as="sourcePoint" />
            <mxPoint x="230" y="760" as="targetPoint" />
            <Array as="points">
              <mxPoint x="350" y="1000" />
              <mxPoint x="1480" y="1000" />
              <mxPoint x="1480" y="60" />
              <mxPoint x="443" y="60" />
            </Array>
          </mxGeometry>
        </mxCell>
        <mxCell id="82" value="" style="edgeStyle=none;html=1;fontSize=24;entryX=0.5;entryY=0;entryDx=0;entryDy=0;strokeColor=#00FF00;fillColor=#00FF00;" parent="1" source="79" target="107" edge="1">
          <mxGeometry relative="1" as="geometry">
            <mxPoint x="707.5000000000005" y="510" as="targetPoint" />
          </mxGeometry>
        </mxCell>
        <mxCell id="79" value="&lt;font style=&quot;font-size: 24px;&quot;&gt;Input score&lt;/font&gt;" style="shape=parallelogram;perimeter=parallelogramPerimeter;whiteSpace=wrap;html=1;fixedSize=1;" parent="1" vertex="1">
          <mxGeometry x="607.5" y="370" width="200" height="60" as="geometry" />
        </mxCell>
        <mxCell id="83" value="&lt;font style=&quot;font-size: 24px;&quot;&gt;print Excellance&lt;/font&gt;" style="shape=parallelogram;perimeter=parallelogramPerimeter;whiteSpace=wrap;html=1;fixedSize=1;" parent="1" vertex="1">
          <mxGeometry x="592.5" y="650" width="230" height="60" as="geometry" />
        </mxCell>
        <mxCell id="87" value="" style="endArrow=classic;html=1;fontSize=24;exitX=1;exitY=0.5;exitDx=0;exitDy=0;entryX=0;entryY=0.5;entryDx=0;entryDy=0;strokeColor=#00FF00;fillColor=#00FF00;" parent="1" source="107" target="114" edge="1">
          <mxGeometry relative="1" as="geometry">
            <mxPoint x="827.5000000000005" y="540" as="sourcePoint" />
            <mxPoint x="930" y="530" as="targetPoint" />
          </mxGeometry>
        </mxCell>
        <mxCell id="88" value="false" style="edgeLabel;resizable=0;html=1;align=center;verticalAlign=middle;fontSize=24;" parent="87" connectable="0" vertex="1">
          <mxGeometry relative="1" as="geometry" />
        </mxCell>
        <mxCell id="93" value="&lt;span style=&quot;font-family: Consolas, &amp;quot;Kantumruy Pro&amp;quot;, monospace, Consolas, &amp;quot;Courier New&amp;quot;, monospace; background-color: rgb(38, 35, 53);&quot;&gt;&lt;font color=&quot;#fede5d&quot;&gt;if&lt;/font&gt;&lt;/span&gt;&lt;span style=&quot;font-family: Consolas, &amp;quot;Kantumruy Pro&amp;quot;, monospace, Consolas, &amp;quot;Courier New&amp;quot;, monospace; background-color: rgb(38, 35, 53); color: rgb(187, 187, 187);&quot;&gt; (&lt;span style=&quot;color: rgb(255, 126, 219);&quot;&gt;num1&lt;/span&gt;&amp;nbsp;&lt;span style=&quot;color: rgb(254, 222, 93);&quot;&gt;&amp;gt;&lt;/span&gt;&amp;nbsp;&lt;span style=&quot;color: rgb(255, 126, 219);&quot;&gt;num2&lt;/span&gt;)&lt;/span&gt;" style="rhombus;whiteSpace=wrap;html=1;fontSize=24;" parent="1" vertex="1">
          <mxGeometry x="-580" y="300" width="170" height="140" as="geometry" />
        </mxCell>
        <mxCell id="97" value="Print num2" style="shape=parallelogram;perimeter=parallelogramPerimeter;whiteSpace=wrap;html=1;fixedSize=1;fontSize=24;" parent="1" vertex="1">
          <mxGeometry x="-770" y="425" width="160" height="60" as="geometry" />
        </mxCell>
        <mxCell id="99" value="" style="endArrow=none;html=1;fontSize=24;exitX=0.5;exitY=1;exitDx=0;exitDy=0;" parent="1" target="98" edge="1">
          <mxGeometry width="50" height="50" relative="1" as="geometry">
            <mxPoint x="-270" y="485" as="sourcePoint" />
            <mxPoint x="-700" y="520" as="targetPoint" />
            <Array as="points" />
          </mxGeometry>
        </mxCell>
        <mxCell id="98" value="Print num1" style="shape=parallelogram;perimeter=parallelogramPerimeter;whiteSpace=wrap;html=1;fixedSize=1;fontSize=24;" parent="1" vertex="1">
          <mxGeometry x="-350" y="430" width="160" height="60" as="geometry" />
        </mxCell>
        <mxCell id="100" value="&lt;font style=&quot;font-family: Consolas, &amp;quot;Kantumruy Pro&amp;quot;, monospace, Consolas, &amp;quot;Courier New&amp;quot;, monospace; background-color: rgb(38, 35, 53);&quot; color=&quot;#fede5d&quot;&gt;if&lt;/font&gt;&lt;span style=&quot;font-family: Consolas, &amp;quot;Kantumruy Pro&amp;quot;, monospace, Consolas, &amp;quot;Courier New&amp;quot;, monospace; background-color: rgb(38, 35, 53); color: rgb(187, 187, 187);&quot;&gt;&amp;nbsp;&lt;br&gt;(&lt;span style=&quot;color: rgb(255, 126, 219);&quot;&gt;num&lt;/span&gt;&amp;nbsp;&lt;span style=&quot;color: rgb(254, 222, 93);&quot;&gt;%&lt;/span&gt;&amp;nbsp;&lt;span style=&quot;color: rgb(249, 126, 114);&quot;&gt;2&lt;/span&gt;&amp;nbsp;&lt;span style=&quot;color: rgb(254, 222, 93);&quot;&gt;==&lt;/span&gt;&amp;nbsp;&lt;span style=&quot;color: rgb(249, 126, 114);&quot;&gt;0&lt;/span&gt;)&lt;/span&gt;" style="rhombus;whiteSpace=wrap;html=1;fontSize=24;" parent="1" vertex="1">
          <mxGeometry x="55" y="460" width="200" height="150" as="geometry" />
        </mxCell>
        <mxCell id="101" value="print odd number" style="shape=parallelogram;perimeter=parallelogramPerimeter;whiteSpace=wrap;html=1;fixedSize=1;fontSize=24;" parent="1" vertex="1">
          <mxGeometry x="-160" y="580" width="170" height="70" as="geometry" />
        </mxCell>
        <mxCell id="102" value="print even number" style="shape=parallelogram;perimeter=parallelogramPerimeter;whiteSpace=wrap;html=1;fixedSize=1;fontSize=24;" parent="1" vertex="1">
          <mxGeometry x="270" y="590" width="160" height="60" as="geometry" />
        </mxCell>
        <mxCell id="104" value="&lt;span style=&quot;color: rgb(240, 240, 240); font-family: Helvetica; font-size: 24px; font-style: normal; font-variant-ligatures: normal; font-variant-caps: normal; font-weight: 400; letter-spacing: normal; orphans: 2; text-align: center; text-indent: 0px; text-transform: none; widows: 2; word-spacing: 0px; -webkit-text-stroke-width: 0px; background-color: rgb(24, 20, 29); text-decoration-thickness: initial; text-decoration-style: initial; text-decoration-color: initial; float: none; display: inline !important;&quot;&gt;ជ្រើសរើសជម្រើសម្តងទៀត&lt;/span&gt;" style="text;whiteSpace=wrap;html=1;fontSize=24;" parent="1" vertex="1">
          <mxGeometry x="1310" y="280" width="300" height="50" as="geometry" />
        </mxCell>
        <mxCell id="108" value="" style="endArrow=none;html=1;fontSize=24;exitX=0.5;exitY=1;exitDx=0;exitDy=0;entryX=0.5;entryY=0;entryDx=0;entryDy=0;" parent="1" target="107" edge="1">
          <mxGeometry relative="1" as="geometry">
            <mxPoint x="707.5000000000005" y="570" as="sourcePoint" />
            <mxPoint x="707.5000000000005" y="650" as="targetPoint" />
          </mxGeometry>
        </mxCell>
        <mxCell id="109" value="true" style="edgeLabel;resizable=0;html=1;align=center;verticalAlign=middle;fontSize=24;" parent="108" connectable="0" vertex="1">
          <mxGeometry relative="1" as="geometry" />
        </mxCell>
        <mxCell id="107" value="&lt;span style=&quot;font-family: Consolas, &amp;quot;Kantumruy Pro&amp;quot;, monospace, Consolas, &amp;quot;Courier New&amp;quot;, monospace; background-color: rgb(38, 35, 53); color: rgb(254, 222, 93);&quot;&gt;if&lt;/span&gt;&lt;span style=&quot;color: rgb(187, 187, 187); font-family: Consolas, &amp;quot;Kantumruy Pro&amp;quot;, monospace, Consolas, &amp;quot;Courier New&amp;quot;, monospace; background-color: rgb(38, 35, 53);&quot;&gt;&amp;nbsp;(&lt;/span&gt;&lt;span style=&quot;font-family: Consolas, &amp;quot;Kantumruy Pro&amp;quot;, monospace, Consolas, &amp;quot;Courier New&amp;quot;, monospace; background-color: rgb(38, 35, 53); color: rgb(255, 126, 219);&quot;&gt;score&lt;/span&gt;&lt;span style=&quot;color: rgb(187, 187, 187); font-family: Consolas, &amp;quot;Kantumruy Pro&amp;quot;, monospace, Consolas, &amp;quot;Courier New&amp;quot;, monospace; background-color: rgb(38, 35, 53);&quot;&gt;&amp;nbsp;&lt;/span&gt;&lt;span style=&quot;font-family: Consolas, &amp;quot;Kantumruy Pro&amp;quot;, monospace, Consolas, &amp;quot;Courier New&amp;quot;, monospace; background-color: rgb(38, 35, 53); color: rgb(254, 222, 93);&quot;&gt;&amp;gt;=&lt;/span&gt;&lt;span style=&quot;color: rgb(187, 187, 187); font-family: Consolas, &amp;quot;Kantumruy Pro&amp;quot;, monospace, Consolas, &amp;quot;Courier New&amp;quot;, monospace; background-color: rgb(38, 35, 53);&quot;&gt;&amp;nbsp;&lt;/span&gt;&lt;span style=&quot;font-family: Consolas, &amp;quot;Kantumruy Pro&amp;quot;, monospace, Consolas, &amp;quot;Courier New&amp;quot;, monospace; background-color: rgb(38, 35, 53); color: rgb(249, 126, 114);&quot;&gt;95&lt;/span&gt;&lt;span style=&quot;color: rgb(187, 187, 187); font-family: Consolas, &amp;quot;Kantumruy Pro&amp;quot;, monospace, Consolas, &amp;quot;Courier New&amp;quot;, monospace; background-color: rgb(38, 35, 53);&quot;&gt;)&lt;/span&gt;" style="rhombus;whiteSpace=wrap;html=1;fontSize=24;" parent="1" vertex="1">
          <mxGeometry x="612.5" y="480" width="190" height="100" as="geometry" />
        </mxCell>
        <mxCell id="110" value="" style="endArrow=classic;html=1;fontSize=24;exitX=0.5;exitY=1;exitDx=0;exitDy=0;entryX=0.5;entryY=0;entryDx=0;entryDy=0;strokeColor=#00FF00;fillColor=#00FF00;" parent="1" source="107" target="83" edge="1">
          <mxGeometry relative="1" as="geometry">
            <mxPoint x="660" y="590" as="sourcePoint" />
            <mxPoint x="680" y="620" as="targetPoint" />
          </mxGeometry>
        </mxCell>
        <mxCell id="111" value="true" style="edgeLabel;resizable=0;html=1;align=center;verticalAlign=middle;fontSize=24;" parent="110" connectable="0" vertex="1">
          <mxGeometry relative="1" as="geometry" />
        </mxCell>
        <mxCell id="114" value="&lt;div style=&quot;color: rgb(187, 187, 187); background-color: rgb(38, 35, 53); font-family: Consolas, &amp;quot;Kantumruy Pro&amp;quot;, monospace, Consolas, &amp;quot;Courier New&amp;quot;, monospace; line-height: 19px;&quot;&gt;&lt;font style=&quot;font-size: 24px;&quot;&gt;&amp;nbsp;&lt;span style=&quot;color: rgb(254, 222, 93);&quot;&gt;else&lt;/span&gt; &lt;span style=&quot;color: rgb(254, 222, 93);&quot;&gt;if&lt;/span&gt; (&lt;span style=&quot;color: rgb(255, 126, 219);&quot;&gt;score&lt;/span&gt; &lt;span style=&quot;color: rgb(254, 222, 93);&quot;&gt;&amp;gt;=&lt;/span&gt; &lt;span style=&quot;color: rgb(249, 126, 114);&quot;&gt;85&lt;/span&gt;)&lt;/font&gt;&lt;/div&gt;" style="rhombus;whiteSpace=wrap;html=1;fontSize=24;" parent="1" vertex="1">
          <mxGeometry x="930" y="470" width="210" height="120" as="geometry" />
        </mxCell>
        <mxCell id="115" value="" style="endArrow=classic;html=1;fontSize=24;exitX=0.5;exitY=1;exitDx=0;exitDy=0;entryX=0.5;entryY=0;entryDx=0;entryDy=0;strokeColor=#00FF00;fillColor=#00FF00;" parent="1" source="114" target="117" edge="1">
          <mxGeometry relative="1" as="geometry">
            <mxPoint x="1020" y="590" as="sourcePoint" />
            <mxPoint x="1035" y="660" as="targetPoint" />
          </mxGeometry>
        </mxCell>
        <mxCell id="116" value="true" style="edgeLabel;resizable=0;html=1;align=center;verticalAlign=middle;fontSize=24;" parent="115" connectable="0" vertex="1">
          <mxGeometry relative="1" as="geometry" />
        </mxCell>
        <mxCell id="117" value="&lt;font style=&quot;font-size: 24px;&quot;&gt;print Verygood&lt;/font&gt;" style="shape=parallelogram;perimeter=parallelogramPerimeter;whiteSpace=wrap;html=1;fixedSize=1;" parent="1" vertex="1">
          <mxGeometry x="920" y="650" width="230" height="60" as="geometry" />
        </mxCell>
        <mxCell id="118" value="&lt;div style=&quot;color: rgb(187, 187, 187); background-color: rgb(38, 35, 53); font-family: Consolas, &amp;quot;Kantumruy Pro&amp;quot;, monospace, Consolas, &amp;quot;Courier New&amp;quot;, monospace; line-height: 19px;&quot;&gt;&lt;div style=&quot;line-height: 19px;&quot;&gt;&lt;font style=&quot;font-size: 24px;&quot;&gt;&lt;span style=&quot;color: rgb(254, 222, 93);&quot;&gt;else&lt;/span&gt; &lt;span style=&quot;color: rgb(254, 222, 93);&quot;&gt;if&lt;/span&gt; (&lt;span style=&quot;color: rgb(255, 126, 219);&quot;&gt;score&lt;/span&gt; &lt;span style=&quot;color: rgb(254, 222, 93);&quot;&gt;&amp;gt;=&lt;/span&gt; &lt;span style=&quot;color: rgb(249, 126, 114);&quot;&gt;75&lt;/span&gt;)&lt;/font&gt;&lt;/div&gt;&lt;/div&gt;" style="rhombus;whiteSpace=wrap;html=1;fontSize=24;" parent="1" vertex="1">
          <mxGeometry x="1220" y="470" width="210" height="120" as="geometry" />
        </mxCell>
        <mxCell id="119" value="" style="endArrow=classic;html=1;fontSize=24;exitX=0.5;exitY=1;exitDx=0;exitDy=0;entryX=0.5;entryY=0;entryDx=0;entryDy=0;strokeColor=#00FF00;fillColor=#00FF00;" parent="1" source="118" target="121" edge="1">
          <mxGeometry relative="1" as="geometry">
            <mxPoint x="1310" y="590" as="sourcePoint" />
            <mxPoint x="1325" y="660" as="targetPoint" />
          </mxGeometry>
        </mxCell>
        <mxCell id="120" value="true" style="edgeLabel;resizable=0;html=1;align=center;verticalAlign=middle;fontSize=24;" parent="119" connectable="0" vertex="1">
          <mxGeometry relative="1" as="geometry" />
        </mxCell>
        <mxCell id="121" value="&lt;font style=&quot;font-size: 24px;&quot;&gt;print Good&lt;/font&gt;" style="shape=parallelogram;perimeter=parallelogramPerimeter;whiteSpace=wrap;html=1;fixedSize=1;" parent="1" vertex="1">
          <mxGeometry x="1210" y="650" width="230" height="60" as="geometry" />
        </mxCell>
        <mxCell id="122" value="" style="endArrow=classic;html=1;fontSize=24;entryX=0;entryY=0.5;entryDx=0;entryDy=0;strokeColor=#00FF00;fillColor=#00FF00;" parent="1" target="118" edge="1">
          <mxGeometry relative="1" as="geometry">
            <mxPoint x="1140" y="530" as="sourcePoint" />
            <mxPoint x="930" y="570" as="targetPoint" />
          </mxGeometry>
        </mxCell>
        <mxCell id="123" value="true" style="edgeLabel;resizable=0;html=1;align=center;verticalAlign=middle;fontSize=24;" parent="122" connectable="0" vertex="1">
          <mxGeometry relative="1" as="geometry" />
        </mxCell>
        <mxCell id="124" value="" style="edgeStyle=segmentEdgeStyle;endArrow=classic;html=1;curved=0;rounded=0;endSize=8;startSize=8;fontSize=24;exitX=0.5;exitY=1;exitDx=0;exitDy=0;" parent="1" source="101" edge="1">
          <mxGeometry width="50" height="50" relative="1" as="geometry">
            <mxPoint x="700" y="900" as="sourcePoint" />
            <mxPoint x="350" y="1000" as="targetPoint" />
            <Array as="points">
              <mxPoint x="-80" y="650" />
              <mxPoint x="-80" y="1000" />
            </Array>
          </mxGeometry>
        </mxCell>
        <mxCell id="125" value="&lt;div style=&quot;color: rgb(187, 187, 187); background-color: rgb(38, 35, 53); font-family: Consolas, &amp;quot;Kantumruy Pro&amp;quot;, monospace, Consolas, &amp;quot;Courier New&amp;quot;, monospace; line-height: 19px;&quot;&gt;&lt;div style=&quot;line-height: 19px;&quot;&gt;&lt;div style=&quot;line-height: 19px;&quot;&gt;&lt;font style=&quot;font-size: 24px;&quot;&gt;&lt;span style=&quot;color: rgb(254, 222, 93);&quot;&gt;else&lt;/span&gt; &lt;span style=&quot;color: rgb(254, 222, 93);&quot;&gt;if&lt;/span&gt; (&lt;span style=&quot;color: rgb(255, 126, 219);&quot;&gt;score&lt;/span&gt; &lt;span style=&quot;color: rgb(254, 222, 93);&quot;&gt;&amp;gt;=&lt;/span&gt; &lt;span style=&quot;color: rgb(249, 126, 114);&quot;&gt;60&lt;/span&gt;)&lt;/font&gt;&lt;/div&gt;&lt;/div&gt;&lt;/div&gt;" style="rhombus;whiteSpace=wrap;html=1;fontSize=24;" parent="1" vertex="1">
          <mxGeometry x="595" y="750" width="210" height="120" as="geometry" />
        </mxCell>
        <mxCell id="126" value="" style="endArrow=classic;html=1;fontSize=24;exitX=0.5;exitY=1;exitDx=0;exitDy=0;entryX=0.5;entryY=0;entryDx=0;entryDy=0;strokeColor=#00FF00;fillColor=#00FF00;" parent="1" source="125" target="128" edge="1">
          <mxGeometry relative="1" as="geometry">
            <mxPoint x="685" y="870" as="sourcePoint" />
            <mxPoint x="700" y="940" as="targetPoint" />
          </mxGeometry>
        </mxCell>
        <mxCell id="127" value="true" style="edgeLabel;resizable=0;html=1;align=center;verticalAlign=middle;fontSize=24;" parent="126" connectable="0" vertex="1">
          <mxGeometry relative="1" as="geometry" />
        </mxCell>
        <mxCell id="128" value="&lt;font style=&quot;font-size: 24px;&quot;&gt;print Fair&lt;/font&gt;" style="shape=parallelogram;perimeter=parallelogramPerimeter;whiteSpace=wrap;html=1;fixedSize=1;" parent="1" vertex="1">
          <mxGeometry x="585" y="930" width="230" height="60" as="geometry" />
        </mxCell>
        <mxCell id="130" value="" style="edgeStyle=segmentEdgeStyle;endArrow=classic;html=1;curved=0;rounded=0;endSize=8;startSize=8;fontSize=24;exitX=0.5;exitY=0;exitDx=0;exitDy=0;entryX=0;entryY=0.5;entryDx=0;entryDy=0;strokeColor=#00FF00;fillColor=#00FF00;" parent="1" source="118" target="125" edge="1">
          <mxGeometry width="50" height="50" relative="1" as="geometry">
            <mxPoint x="770" y="700" as="sourcePoint" />
            <mxPoint x="820" y="650" as="targetPoint" />
            <Array as="points">
              <mxPoint x="1325" y="460" />
              <mxPoint x="550" y="460" />
              <mxPoint x="550" y="810" />
            </Array>
          </mxGeometry>
        </mxCell>
        <mxCell id="131" value="false" style="edgeLabel;resizable=0;html=1;align=center;verticalAlign=middle;fontSize=24;" parent="1" connectable="0" vertex="1">
          <mxGeometry x="920" y="460" as="geometry" />
        </mxCell>
        <mxCell id="132" value="&lt;div style=&quot;color: rgb(187, 187, 187); background-color: rgb(38, 35, 53); font-family: Consolas, &amp;quot;Kantumruy Pro&amp;quot;, monospace, Consolas, &amp;quot;Courier New&amp;quot;, monospace; line-height: 19px;&quot;&gt;&lt;div style=&quot;line-height: 19px;&quot;&gt;&lt;div style=&quot;line-height: 19px;&quot;&gt;&lt;div style=&quot;line-height: 19px;&quot;&gt;&lt;font style=&quot;font-size: 24px;&quot;&gt;&lt;span style=&quot;color: rgb(254, 222, 93);&quot;&gt;else&lt;/span&gt; &lt;span style=&quot;color: rgb(254, 222, 93);&quot;&gt;if&lt;/span&gt; (&lt;span style=&quot;color: rgb(255, 126, 219);&quot;&gt;score&lt;/span&gt; &lt;span style=&quot;color: rgb(254, 222, 93);&quot;&gt;&amp;gt;=&lt;/span&gt; &lt;span style=&quot;color: rgb(249, 126, 114);&quot;&gt;50&lt;/span&gt;)&lt;/font&gt;&lt;/div&gt;&lt;/div&gt;&lt;/div&gt;&lt;/div&gt;" style="rhombus;whiteSpace=wrap;html=1;fontSize=24;" parent="1" vertex="1">
          <mxGeometry x="920" y="750" width="210" height="120" as="geometry" />
        </mxCell>
        <mxCell id="133" value="" style="endArrow=classic;html=1;fontSize=24;exitX=0.5;exitY=1;exitDx=0;exitDy=0;entryX=0.5;entryY=0;entryDx=0;entryDy=0;strokeColor=#00FF00;fillColor=#00FF00;" parent="1" source="132" target="135" edge="1">
          <mxGeometry relative="1" as="geometry">
            <mxPoint x="1010" y="870" as="sourcePoint" />
            <mxPoint x="1025" y="940" as="targetPoint" />
          </mxGeometry>
        </mxCell>
        <mxCell id="134" value="true" style="edgeLabel;resizable=0;html=1;align=center;verticalAlign=middle;fontSize=24;" parent="133" connectable="0" vertex="1">
          <mxGeometry relative="1" as="geometry" />
        </mxCell>
        <mxCell id="135" value="&lt;font style=&quot;font-size: 24px;&quot;&gt;print Pass&lt;/font&gt;" style="shape=parallelogram;perimeter=parallelogramPerimeter;whiteSpace=wrap;html=1;fixedSize=1;" parent="1" vertex="1">
          <mxGeometry x="910" y="930" width="230" height="60" as="geometry" />
        </mxCell>
        <mxCell id="136" value="" style="endArrow=classic;html=1;fontSize=24;entryX=0;entryY=0.5;entryDx=0;entryDy=0;exitX=1;exitY=0.5;exitDx=0;exitDy=0;strokeColor=#00FF00;fillColor=#00FF00;" parent="1" source="125" target="132" edge="1">
          <mxGeometry relative="1" as="geometry">
            <mxPoint x="807.4999999999995" y="809.1700000000001" as="sourcePoint" />
            <mxPoint x="887.4999999999995" y="809.1700000000001" as="targetPoint" />
          </mxGeometry>
        </mxCell>
        <mxCell id="137" value="false" style="edgeLabel;resizable=0;html=1;align=center;verticalAlign=middle;fontSize=24;" parent="136" connectable="0" vertex="1">
          <mxGeometry relative="1" as="geometry" />
        </mxCell>
        <mxCell id="142" value="&lt;div style=&quot;color: rgb(187, 187, 187); background-color: rgb(38, 35, 53); font-family: Consolas, &amp;quot;Kantumruy Pro&amp;quot;, monospace, Consolas, &amp;quot;Courier New&amp;quot;, monospace; line-height: 19px;&quot;&gt;&lt;div style=&quot;line-height: 19px;&quot;&gt;&lt;div style=&quot;line-height: 19px;&quot;&gt;&lt;div style=&quot;line-height: 19px;&quot;&gt;&lt;font style=&quot;font-size: 24px;&quot;&gt;&lt;span style=&quot;color: rgb(254, 222, 93);&quot;&gt;else&lt;/span&gt;&lt;/font&gt;&lt;/div&gt;&lt;/div&gt;&lt;/div&gt;&lt;/div&gt;" style="rhombus;whiteSpace=wrap;html=1;fontSize=24;" parent="1" vertex="1">
          <mxGeometry x="1220" y="750" width="210" height="120" as="geometry" />
        </mxCell>
        <mxCell id="143" value="" style="endArrow=classic;html=1;fontSize=24;exitX=0.5;exitY=1;exitDx=0;exitDy=0;entryX=0.5;entryY=0;entryDx=0;entryDy=0;strokeColor=#00FF00;fillColor=#00FF00;" parent="1" source="142" target="145" edge="1">
          <mxGeometry relative="1" as="geometry">
            <mxPoint x="1310" y="870" as="sourcePoint" />
            <mxPoint x="1325" y="940" as="targetPoint" />
          </mxGeometry>
        </mxCell>
        <mxCell id="144" value="true" style="edgeLabel;resizable=0;html=1;align=center;verticalAlign=middle;fontSize=24;" parent="143" connectable="0" vertex="1">
          <mxGeometry relative="1" as="geometry" />
        </mxCell>
        <mxCell id="145" value="&lt;font style=&quot;font-size: 24px;&quot;&gt;print Failed&lt;/font&gt;" style="shape=parallelogram;perimeter=parallelogramPerimeter;whiteSpace=wrap;html=1;fixedSize=1;" parent="1" vertex="1">
          <mxGeometry x="1210" y="930" width="230" height="60" as="geometry" />
        </mxCell>
        <mxCell id="146" value="" style="endArrow=classic;html=1;fontSize=24;entryX=0;entryY=0.5;entryDx=0;entryDy=0;exitX=1;exitY=0.5;exitDx=0;exitDy=0;strokeColor=#00FF00;fillColor=#00FF00;" parent="1" source="132" target="142" edge="1">
          <mxGeometry relative="1" as="geometry">
            <mxPoint x="1140" y="809.33" as="sourcePoint" />
            <mxPoint x="1255" y="809.33" as="targetPoint" />
          </mxGeometry>
        </mxCell>
        <mxCell id="147" value="false" style="edgeLabel;resizable=0;html=1;align=center;verticalAlign=middle;fontSize=24;" parent="146" connectable="0" vertex="1">
          <mxGeometry relative="1" as="geometry" />
        </mxCell>
        <mxCell id="148" value="" style="endArrow=classic;html=1;fontSize=24;exitX=1;exitY=0.5;exitDx=0;exitDy=0;" parent="1" source="128" edge="1">
          <mxGeometry width="50" height="50" relative="1" as="geometry">
            <mxPoint x="690" y="960" as="sourcePoint" />
            <mxPoint x="850" y="1000" as="targetPoint" />
          </mxGeometry>
        </mxCell>
        <mxCell id="149" value="" style="endArrow=classic;html=1;fontSize=24;exitX=1;exitY=0.5;exitDx=0;exitDy=0;" parent="1" source="135" edge="1">
          <mxGeometry width="50" height="50" relative="1" as="geometry">
            <mxPoint x="1040" y="960" as="sourcePoint" />
            <mxPoint x="1180" y="1000" as="targetPoint" />
          </mxGeometry>
        </mxCell>
        <mxCell id="150" value="" style="endArrow=classic;html=1;fontSize=24;exitX=1;exitY=0.5;exitDx=0;exitDy=0;" parent="1" source="145" edge="1">
          <mxGeometry width="50" height="50" relative="1" as="geometry">
            <mxPoint x="1310" y="960" as="sourcePoint" />
            <mxPoint x="1480" y="900" as="targetPoint" />
          </mxGeometry>
        </mxCell>
        <mxCell id="151" value="" style="edgeStyle=segmentEdgeStyle;endArrow=classic;html=1;curved=0;rounded=0;endSize=8;startSize=8;fontSize=24;exitX=0.5;exitY=1;exitDx=0;exitDy=0;" parent="1" source="98" edge="1">
          <mxGeometry width="50" height="50" relative="1" as="geometry">
            <mxPoint x="-490" y="640" as="sourcePoint" />
            <mxPoint x="-700" y="520" as="targetPoint" />
            <Array as="points">
              <mxPoint x="-270" y="520" />
            </Array>
          </mxGeometry>
        </mxCell>
        <mxCell id="152" value="Exit" style="shape=parallelogram;perimeter=parallelogramPerimeter;whiteSpace=wrap;html=1;fixedSize=1;fontSize=24;" parent="1" vertex="1">
          <mxGeometry x="900" y="190" width="160" height="100" as="geometry" />
        </mxCell>
        <mxCell id="154" value="Stop or end" style="ellipse;whiteSpace=wrap;html=1;fontSize=24;" parent="1" vertex="1">
          <mxGeometry x="1090" y="290" width="170" height="110" as="geometry" />
        </mxCell>
        <mxCell id="155" value="" style="endArrow=classic;html=1;fontSize=24;exitX=1;exitY=0.5;exitDx=0;exitDy=0;entryX=0.5;entryY=0;entryDx=0;entryDy=0;strokeColor=#800080;fillColor=#800080;" parent="1" source="152" target="154" edge="1">
          <mxGeometry width="50" height="50" relative="1" as="geometry">
            <mxPoint x="910" y="250" as="sourcePoint" />
            <mxPoint x="960" y="200" as="targetPoint" />
          </mxGeometry>
        </mxCell>
        <mxCell id="TeEPfFz6GG87ffMXIj0h-167" value="" style="edgeStyle=none;html=1;fontSize=24;entryX=0.5;entryY=0;entryDx=0;entryDy=0;strokeColor=#0000FF;fillColor=#0000FF;" edge="1" parent="1" source="TeEPfFz6GG87ffMXIj0h-168" target="TeEPfFz6GG87ffMXIj0h-173">
          <mxGeometry relative="1" as="geometry">
            <mxPoint x="-485" y="720" as="targetPoint" />
          </mxGeometry>
        </mxCell>
        <mxCell id="TeEPfFz6GG87ffMXIj0h-168" value="input num" style="shape=parallelogram;perimeter=parallelogramPerimeter;whiteSpace=wrap;html=1;fixedSize=1;fontSize=24;" vertex="1" parent="1">
          <mxGeometry x="-590" y="610" width="210" height="70" as="geometry" />
        </mxCell>
        <mxCell id="TeEPfFz6GG87ffMXIj0h-169" value="" style="endArrow=classic;html=1;fontSize=24;exitX=0;exitY=0.5;exitDx=0;exitDy=0;entryX=0.5;entryY=0;entryDx=0;entryDy=0;strokeColor=#0000FF;fillColor=#0000FF;" edge="1" parent="1" source="TeEPfFz6GG87ffMXIj0h-173" target="TeEPfFz6GG87ffMXIj0h-174">
          <mxGeometry relative="1" as="geometry">
            <mxPoint x="-575" y="750" as="sourcePoint" />
            <mxPoint x="-687.5" y="840" as="targetPoint" />
            <Array as="points">
              <mxPoint x="-610" y="800" />
            </Array>
          </mxGeometry>
        </mxCell>
        <mxCell id="TeEPfFz6GG87ffMXIj0h-170" value="true" style="edgeLabel;resizable=0;html=1;align=center;verticalAlign=middle;fontSize=24;" connectable="0" vertex="1" parent="TeEPfFz6GG87ffMXIj0h-169">
          <mxGeometry relative="1" as="geometry" />
        </mxCell>
        <mxCell id="TeEPfFz6GG87ffMXIj0h-171" value="" style="endArrow=classic;html=1;fontSize=24;exitX=1;exitY=0.5;exitDx=0;exitDy=0;entryX=0;entryY=0;entryDx=0;entryDy=0;strokeColor=#0000FF;fillColor=#0000FF;" edge="1" parent="1" source="TeEPfFz6GG87ffMXIj0h-173" target="TeEPfFz6GG87ffMXIj0h-179">
          <mxGeometry relative="1" as="geometry">
            <mxPoint x="-395" y="750" as="sourcePoint" />
            <mxPoint x="-260" y="850" as="targetPoint" />
            <Array as="points">
              <mxPoint x="-320" y="800" />
            </Array>
          </mxGeometry>
        </mxCell>
        <mxCell id="TeEPfFz6GG87ffMXIj0h-172" value="false" style="edgeLabel;resizable=0;html=1;align=center;verticalAlign=middle;fontSize=24;" connectable="0" vertex="1" parent="TeEPfFz6GG87ffMXIj0h-171">
          <mxGeometry relative="1" as="geometry" />
        </mxCell>
        <mxCell id="TeEPfFz6GG87ffMXIj0h-173" value="&lt;span style=&quot;font-family: Consolas, &amp;quot;Kantumruy Pro&amp;quot;, monospace, Consolas, &amp;quot;Courier New&amp;quot;, monospace; background-color: rgb(38, 35, 53);&quot;&gt;&lt;font color=&quot;#fede5d&quot;&gt;if&lt;/font&gt;&lt;/span&gt;&lt;span style=&quot;font-family: Consolas, &amp;quot;Kantumruy Pro&amp;quot;, monospace, Consolas, &amp;quot;Courier New&amp;quot;, monospace; background-color: rgb(38, 35, 53); color: rgb(187, 187, 187);&quot;&gt; (&lt;span style=&quot;color: rgb(255, 126, 219);&quot;&gt;num&lt;/span&gt;&amp;nbsp;&lt;span style=&quot;color: rgb(254, 222, 93);&quot;&gt;&amp;gt;&lt;/span&gt;&amp;nbsp;&lt;/span&gt;&lt;span style=&quot;font-family: Consolas, &amp;quot;Kantumruy Pro&amp;quot;, monospace, Consolas, &amp;quot;Courier New&amp;quot;, monospace; background-color: rgb(38, 35, 53);&quot;&gt;&lt;font color=&quot;#ff7edb&quot;&gt;០)&lt;/font&gt;&lt;/span&gt;" style="rhombus;whiteSpace=wrap;html=1;fontSize=24;" vertex="1" parent="1">
          <mxGeometry x="-570" y="720" width="170" height="140" as="geometry" />
        </mxCell>
        <mxCell id="TeEPfFz6GG87ffMXIj0h-174" value="Positive" style="shape=parallelogram;perimeter=parallelogramPerimeter;whiteSpace=wrap;html=1;fixedSize=1;fontSize=24;" vertex="1" parent="1">
          <mxGeometry x="-760" y="845" width="160" height="60" as="geometry" />
        </mxCell>
        <mxCell id="TeEPfFz6GG87ffMXIj0h-179" value="&lt;span style=&quot;font-family: Consolas, &amp;quot;Kantumruy Pro&amp;quot;, monospace, Consolas, &amp;quot;Courier New&amp;quot;, monospace; background-color: rgb(38, 35, 53);&quot;&gt;&lt;font color=&quot;#fede5d&quot;&gt;else if&lt;/font&gt;&lt;/span&gt;&lt;span style=&quot;font-family: Consolas, &amp;quot;Kantumruy Pro&amp;quot;, monospace, Consolas, &amp;quot;Courier New&amp;quot;, monospace; background-color: rgb(38, 35, 53); color: rgb(187, 187, 187);&quot;&gt; (&lt;span style=&quot;color: rgb(255, 126, 219);&quot;&gt;num&lt;/span&gt;&amp;nbsp;&lt;/span&gt;&lt;span style=&quot;font-family: Consolas, &amp;quot;Kantumruy Pro&amp;quot;, monospace, Consolas, &amp;quot;Courier New&amp;quot;, monospace; background-color: rgb(38, 35, 53);&quot;&gt;&lt;font color=&quot;#fede5d&quot;&gt;&amp;lt;&lt;/font&gt;&lt;font color=&quot;#bbbbbb&quot;&gt;&amp;nbsp;&lt;/font&gt;&lt;/span&gt;&lt;span style=&quot;font-family: Consolas, &amp;quot;Kantumruy Pro&amp;quot;, monospace, Consolas, &amp;quot;Courier New&amp;quot;, monospace; background-color: rgb(38, 35, 53);&quot;&gt;&lt;font color=&quot;#ff7edb&quot;&gt;០)&lt;/font&gt;&lt;/span&gt;" style="rhombus;whiteSpace=wrap;html=1;fontSize=24;" vertex="1" parent="1">
          <mxGeometry x="-270" y="790" width="170" height="140" as="geometry" />
        </mxCell>
        <mxCell id="TeEPfFz6GG87ffMXIj0h-181" value="Positive" style="shape=parallelogram;perimeter=parallelogramPerimeter;whiteSpace=wrap;html=1;fixedSize=1;fontSize=24;" vertex="1" parent="1">
          <mxGeometry x="-530" y="950" width="160" height="60" as="geometry" />
        </mxCell>
        <mxCell id="TeEPfFz6GG87ffMXIj0h-183" value="" style="edgeStyle=elbowEdgeStyle;elbow=horizontal;endArrow=classic;html=1;curved=0;rounded=0;endSize=8;startSize=8;" edge="1" parent="1" target="TeEPfFz6GG87ffMXIj0h-181">
          <mxGeometry width="50" height="50" relative="1" as="geometry">
            <mxPoint x="-185" y="930" as="sourcePoint" />
            <mxPoint x="-450" y="950" as="targetPoint" />
            <Array as="points">
              <mxPoint x="-185" y="1020" />
            </Array>
          </mxGeometry>
        </mxCell>
        <mxCell id="TeEPfFz6GG87ffMXIj0h-184" value="" style="edgeStyle=elbowEdgeStyle;elbow=horizontal;endArrow=classic;html=1;curved=0;rounded=0;endSize=8;startSize=8;exitX=0;exitY=0.5;exitDx=0;exitDy=0;" edge="1" parent="1" source="TeEPfFz6GG87ffMXIj0h-174">
          <mxGeometry width="50" height="50" relative="1" as="geometry">
            <mxPoint x="-380" y="860" as="sourcePoint" />
            <mxPoint x="-810" y="520" as="targetPoint" />
            <Array as="points">
              <mxPoint x="-810" y="690" />
            </Array>
          </mxGeometry>
        </mxCell>
        <mxCell id="TeEPfFz6GG87ffMXIj0h-185" value="" style="edgeStyle=elbowEdgeStyle;elbow=horizontal;endArrow=classic;html=1;curved=0;rounded=0;endSize=8;startSize=8;" edge="1" parent="1">
          <mxGeometry width="50" height="50" relative="1" as="geometry">
            <mxPoint x="-520" y="980" as="sourcePoint" />
            <mxPoint x="-810" y="870" as="targetPoint" />
            <Array as="points">
              <mxPoint x="-810" y="930" />
            </Array>
          </mxGeometry>
        </mxCell>
        <mxCell id="TeEPfFz6GG87ffMXIj0h-186" value="" style="edgeStyle=elbowEdgeStyle;elbow=horizontal;endArrow=classic;html=1;curved=0;rounded=0;endSize=8;startSize=8;exitX=0.433;exitY=0.996;exitDx=0;exitDy=0;exitPerimeter=0;entryX=1;entryY=0.5;entryDx=0;entryDy=0;strokeColor=#0000FF;fillColor=#0000FF;" edge="1" parent="1" source="22" target="TeEPfFz6GG87ffMXIj0h-168">
          <mxGeometry width="50" height="50" relative="1" as="geometry">
            <mxPoint x="160" y="490" as="sourcePoint" />
            <mxPoint x="210" y="440" as="targetPoint" />
            <Array as="points">
              <mxPoint x="-170" y="470" />
            </Array>
          </mxGeometry>
        </mxCell>
      </root>
    </mxGraphModel>
  </diagram>
</mxfile>
